<svg xmlns="http://www.w3.org/2000/svg" xmlns:xlink="http://www.w3.org/1999/xlink" width="500" zoomAndPan="magnify" viewBox="0 0 375 374.999991" height="500" preserveAspectRatio="xMidYMid meet" version="1.0"><path fill="#ffffff" d="M 321.746094 302.535156 L 318.746094 302.105469 C 318.746094 302.105469 321.957031 297.175781 331.667969 275.660156 C 341.375 254.148438 332.023438 248.21875 323.316406 251.21875 C 328.953125 238.78125 311.679688 239.355469 308.464844 242.5 C 305.398438 232.566406 307.894531 232.421875 294.117188 233.707031 C 280.339844 234.921875 220.300781 302.035156 220.300781 302.035156 C 220.300781 302.035156 85.09375 302.464844 33.550781 302.464844 C 21.203125 287.597656 8.851562 265.085938 13.207031 254.363281 C 17.632812 243.714844 30.695312 239.210938 30.695312 239.210938 C 30.695312 239.210938 28.625 237.78125 25.769531 216.984375 C 25.058594 148.160156 56.324219 126.644531 85.523438 102.203125 C 94.515625 57.605469 128.425781 10.863281 147.558594 0.144531 C 172.542969 18.226562 203.882812 71.613281 203.882812 71.613281 L 244.21875 82.191406 C 244.21875 82.191406 292.691406 28.730469 314.320312 18.011719 C 334.453125 36.949219 341.375 65.753906 344.445312 83.550781 C 351.511719 125.144531 344.445312 147.585938 344.445312 147.585938 C 344.445312 147.585938 361.007812 174.171875 361.007812 211.980469 C 361.007812 233.066406 358.4375 254.363281 346.015625 275.019531 C 339.878906 285.238281 321.746094 302.535156 321.746094 302.535156 Z M 248.785156 143.371094 C 242.074219 141.082031 228.226562 163.167969 240.71875 160.09375 C 253.285156 157.019531 255.496094 145.65625 248.785156 143.371094 Z M 248.785156 143.371094 " fill-opacity="1" fill-rule="nonzero"/><path fill="#ef5454" d="M 336.949219 69.183594 C 336.949219 69.183594 349.730469 125.503906 318.53125 162.953125 C 330.597656 179.460938 326.242188 248.144531 234.9375 270.375 C 157.910156 292.316406 84.023438 278.019531 42.902344 239.425781 C 49.042969 253.363281 59.039062 272.945312 71.886719 285.382812 C 57.109375 276.734375 38.40625 258.792969 31.269531 238.640625 C 32.765625 256.863281 43.902344 284.382812 70.53125 302.320312 C 112.007812 302.390625 292.761719 302.320312 292.761719 302.320312 C 292.761719 302.320312 344.589844 277.019531 357.722656 231.921875 C 366.148438 180.605469 344.515625 150.089844 344.515625 150.089844 C 344.515625 150.089844 349.730469 119.355469 348.015625 102.632812 C 346.015625 84.691406 336.949219 69.183594 336.949219 69.183594 Z M 284.765625 279.019531 C 278.054688 282.378906 278.699219 271.800781 284.765625 270.515625 C 290.832031 269.300781 291.476562 275.804688 284.765625 279.019531 Z M 284.765625 279.019531 " fill-opacity="0.3" fill-rule="nonzero"/><path fill="#2b0806" d="M 80.453125 49.027344 C 59.324219 50.316406 53.898438 77.1875 53.183594 81.621094 C 53.183594 82.046875 53.183594 82.261719 53.183594 82.261719 C 53.183594 82.261719 53.183594 82.121094 53.113281 81.976562 C 53.113281 82.191406 53.042969 82.261719 53.042969 82.261719 C 53.042969 82.261719 53.042969 82.046875 53.042969 81.621094 C 52.328125 77.1875 47.1875 50.457031 25.769531 49.027344 C 46.972656 47.742188 52.398438 20.871094 53.113281 16.4375 C 53.113281 16.007812 53.113281 15.796875 53.113281 15.796875 C 53.113281 15.796875 53.113281 15.9375 53.183594 16.152344 C 53.183594 15.9375 53.253906 15.796875 53.253906 15.796875 C 53.253906 15.796875 53.253906 16.007812 53.253906 16.4375 C 53.898438 20.871094 59.039062 47.597656 80.453125 49.027344 Z M 29.199219 76.6875 C 29.199219 76.472656 29.199219 76.402344 29.199219 76.402344 C 29.199219 76.402344 29.199219 76.472656 29.199219 76.546875 C 29.199219 76.472656 29.199219 76.402344 29.199219 76.402344 C 29.199219 76.402344 29.199219 76.546875 29.199219 76.6875 C 28.769531 78.832031 26.128906 92.195312 15.632812 92.839844 C 26.199219 93.554688 28.769531 106.777344 29.125 108.992188 C 29.125 109.207031 29.125 109.277344 29.125 109.277344 C 29.125 109.277344 29.125 109.207031 29.125 109.136719 C 29.125 109.207031 29.125 109.277344 29.125 109.277344 C 29.125 109.277344 29.125 109.136719 29.125 108.992188 C 29.484375 106.847656 32.195312 93.484375 42.617188 92.839844 C 32.125 92.195312 29.625 78.902344 29.199219 76.6875 Z M 29.199219 76.6875 " fill-opacity="1" fill-rule="nonzero"/><path fill="#efb07d" d="M 85.378906 102.347656 Z M 85.378906 102.273438 C 85.453125 102.273438 85.453125 102.273438 85.378906 102.273438 C 85.453125 102.273438 85.453125 102.273438 85.378906 102.273438 Z M 324.671875 132.863281 C 341.449219 102.058594 309.539062 38.953125 309.539062 38.953125 C 300.542969 49.242188 290.976562 88.980469 289.546875 98.273438 C 301.683594 102.132812 318.960938 113.066406 324.671875 132.863281 Z M 85.453125 102.273438 C 85.453125 102.273438 85.523438 102.203125 85.453125 102.273438 C 85.523438 102.203125 85.453125 102.273438 85.453125 102.273438 Z M 203.882812 71.683594 C 203.882812 71.683594 170.472656 20.941406 146.988281 2.929688 C 137.066406 9.078125 128.496094 16.796875 120.503906 28.730469 C 125.785156 22.371094 131.640625 17.152344 137.851562 14.078125 C 137.851562 14.078125 109.792969 44.957031 98.585938 90.910156 C 106.511719 90.054688 125.785156 91.554688 125.785156 91.554688 C 125.785156 91.554688 97.585938 92.910156 75.242188 114.566406 C 66.035156 118.710938 58.894531 122.714844 46.6875 139.726562 C 42.761719 151.945312 81.3125 207.265625 157.265625 176.460938 C 229.441406 147.15625 209.59375 73.257812 209.59375 73.257812 Z M 331.882812 250.21875 C 328.027344 249.503906 323.386719 251.289062 323.386719 251.289062 C 323.386719 251.289062 325.601562 242.070312 318.746094 240.640625 C 311.894531 239.210938 305.683594 244.785156 305.683594 244.785156 C 305.683594 244.785156 310.324219 233.996094 298.972656 232.066406 C 283.050781 229.492188 220.015625 302.464844 220.015625 302.464844 L 321.746094 302.464844 C 321.746094 302.535156 343.519531 258.007812 331.882812 250.21875 Z M 331.882812 250.21875 " fill-opacity="1" fill-rule="nonzero"/><path fill="#fcc85e" d="M 29.199219 85.765625 C 29.199219 85.691406 29.199219 85.621094 29.199219 85.621094 C 29.199219 85.621094 29.199219 85.621094 29.199219 85.765625 C 29.199219 85.621094 29.199219 85.621094 29.199219 85.621094 C 29.199219 85.621094 29.199219 85.691406 29.199219 85.765625 C 28.984375 86.695312 27.839844 92.554688 23.199219 92.839844 C 27.914062 93.199219 28.984375 98.988281 29.125 99.914062 C 29.125 99.988281 29.125 100.058594 29.125 100.058594 C 29.125 100.058594 29.125 100.058594 29.125 99.988281 C 29.125 100.058594 29.125 100.058594 29.125 100.058594 C 29.125 100.058594 29.125 99.988281 29.125 99.914062 C 29.269531 98.988281 30.484375 93.125 35.050781 92.839844 C 30.484375 92.484375 29.339844 86.765625 29.199219 85.765625 Z M 53.183594 69.039062 C 53.183594 69.039062 53.183594 68.96875 53.183594 68.828125 C 53.183594 68.96875 53.183594 69.039062 53.183594 69.039062 C 53.253906 69.039062 53.253906 68.898438 53.253906 68.683594 C 53.683594 66.039062 56.894531 49.886719 69.675781 49.027344 C 56.753906 48.171875 53.753906 32.089844 53.253906 29.375 C 53.253906 29.160156 53.253906 29.015625 53.253906 29.015625 C 53.253906 29.015625 53.253906 29.089844 53.253906 29.230469 C 53.253906 29.089844 53.253906 29.015625 53.253906 29.015625 C 53.253906 29.015625 53.253906 29.160156 53.253906 29.375 C 52.828125 32.019531 49.613281 48.171875 36.835938 49.027344 C 49.757812 49.886719 52.753906 65.96875 53.253906 68.683594 C 53.183594 68.898438 53.183594 69.039062 53.183594 69.039062 Z M 53.183594 69.039062 " fill-opacity="1" fill-rule="nonzero"/><path fill="#ef5454" d="M 203.382812 74.113281 C 193.816406 72.472656 174.898438 69.683594 157.695312 76.117188 C 164.621094 54.175781 147.414062 5.144531 147.414062 5.144531 C 174.472656 15.867188 207.667969 70.542969 203.382812 74.113281 Z M 326.457031 250.574219 C 326.457031 250.574219 331.167969 255.863281 319.460938 275.019531 C 307.824219 294.171875 299.972656 302.535156 299.972656 302.535156 L 318.460938 302.535156 C 318.460938 302.535156 338.878906 267.085938 336.808594 254.363281 C 334.664062 241.714844 326.457031 250.574219 326.457031 250.574219 Z M 63.679688 47.3125 C 58.324219 46.8125 51.542969 49.527344 52.898438 67.253906 C 53.042969 67.898438 53.113281 68.324219 53.183594 68.613281 C 53.183594 68.828125 53.183594 68.96875 53.183594 68.96875 C 53.183594 68.96875 53.183594 68.898438 53.183594 68.753906 C 53.183594 68.898438 53.183594 68.96875 53.183594 68.96875 C 53.183594 68.96875 53.183594 68.828125 53.183594 68.613281 C 53.613281 65.96875 56.824219 49.816406 69.601562 48.957031 C 67.320312 48.886719 65.390625 48.3125 63.679688 47.3125 Z M 28.910156 98.628906 C 29.054688 99.273438 29.199219 99.703125 29.199219 99.914062 C 29.199219 99.988281 29.199219 100.058594 29.199219 100.058594 C 29.199219 100.058594 29.199219 100.058594 29.199219 99.988281 C 29.199219 100.058594 29.199219 100.058594 29.199219 100.058594 C 29.199219 100.058594 29.199219 99.988281 29.199219 99.914062 C 29.339844 98.988281 30.554688 93.125 35.121094 92.839844 C 34.410156 92.769531 33.835938 92.625 33.265625 92.339844 C 31.339844 92.125 28.484375 92.769531 28.910156 98.628906 Z M 28.910156 98.628906 " fill-opacity="0.3" fill-rule="nonzero"/><path fill="#2b0806" d="M 201.742188 179.605469 C 202.3125 191.328125 185.25 198.617188 177.828125 182.320312 C 161.050781 199.117188 154.484375 179.605469 154.484375 179.605469 C 123.714844 201.046875 122.429688 254.363281 173.613281 254.363281 C 228.511719 254.363281 222.660156 195.328125 201.742188 179.605469 Z M 284.765625 100.203125 C 309.109375 108.707031 324.671875 132.933594 324.671875 132.933594 C 324.671875 132.933594 320.816406 117.070312 310.75 108.5625 C 301.113281 100.488281 292.332031 95.269531 292.332031 95.269531 C 292.332031 95.269531 304.039062 48.527344 309.464844 38.953125 C 309.539062 38.953125 294.117188 54.101562 284.765625 100.203125 Z M 338.804688 261.082031 C 340.875 244.429688 329.738281 245.144531 326.097656 248.289062 C 329.3125 240 316.390625 233.996094 309.609375 241 C 311.035156 228.992188 299.257812 222.34375 281.554688 236.566406 C 265.5625 249.503906 234.507812 281.023438 216.164062 302.535156 C 222.515625 302.535156 224.941406 302.535156 224.941406 302.535156 C 224.941406 302.535156 253.640625 270.730469 269.917969 254.433594 C 286.195312 238.140625 296.332031 233.496094 302.46875 237.355469 C 306.324219 239.855469 305.753906 248.21875 305.753906 248.21875 C 305.753906 248.21875 314.390625 240.785156 319.816406 244 C 324.242188 246.574219 321.957031 251.578125 319.886719 256.152344 C 326.957031 249.074219 335.523438 252.003906 333.59375 262.582031 C 332.167969 270.875 321.316406 292.671875 316.390625 302.390625 L 325.601562 302.390625 C 325.601562 302.390625 340.019531 290.597656 346.089844 279.449219 C 346.089844 268.300781 344.589844 270.300781 344.589844 270.300781 C 344.589844 270.300781 340.164062 277.304688 330.238281 288.167969 C 331.953125 285.308594 337.878906 268.371094 338.804688 261.082031 Z M 229.867188 141.296875 C 215.449219 155.734375 215.449219 179.320312 229.867188 193.828125 C 244.289062 208.265625 267.847656 208.265625 282.339844 193.828125 C 296.757812 179.390625 296.757812 155.804688 282.339844 141.296875 C 267.917969 126.789062 244.433594 126.789062 229.867188 141.296875 Z M 86.949219 117.070312 C 72.53125 131.507812 72.53125 155.089844 86.949219 169.601562 C 101.371094 184.035156 124.929688 184.035156 139.421875 169.601562 C 153.910156 155.164062 153.839844 131.578125 139.421875 117.070312 C 125 102.558594 101.371094 102.632812 86.949219 117.070312 Z M 347.730469 149.445312 C 362.933594 96.628906 329.527344 33.519531 329.527344 33.519531 C 326.027344 26.445312 321.816406 19.226562 316.675781 12.4375 C 310.324219 11.863281 276.769531 41.023438 242.648438 76.757812 C 242.648438 76.757812 227.371094 71.613281 207.667969 70.542969 C 202.242188 58.390625 183.324219 27.515625 147.628906 0.214844 C 140.132812 1.285156 101.585938 33.664062 84.59375 101.203125 C 52.042969 118.570312 14.632812 165.527344 24.558594 224.917969 C 25.269531 228.992188 26.84375 235.066406 27.984375 238.710938 L 24.914062 239.925781 C 24.914062 239.925781 0 251.148438 15.277344 277.378906 C 30.554688 303.605469 32.125 302.605469 32.125 302.605469 L 38.835938 302.605469 C 38.835938 302.605469 19.488281 279.664062 16.847656 263.226562 C 14.921875 251.578125 24.34375 246.289062 29.125 244.644531 C 52.898438 293.027344 97.871094 302.675781 97.871094 302.675781 L 115.71875 302.675781 C 115.71875 302.675781 40.976562 285.453125 30.839844 223.058594 C 27.339844 201.476562 31.410156 180.820312 37.621094 163.882812 C 37.621094 163.953125 37.621094 164.023438 37.621094 164.023438 C 60.324219 111.351562 108.867188 94.984375 108.867188 94.984375 C 102.296875 95.054688 95.945312 96.269531 90.164062 98.414062 C 98.65625 67.753906 117.21875 31.234375 147.488281 5.21875 C 167.191406 20.011719 192.890625 57.390625 200.457031 70.398438 C 194.246094 70.398438 187.605469 70.898438 181.039062 72.113281 C 181.394531 73.902344 226.726562 79.191406 244.21875 82.40625 C 256.996094 69.113281 292.40625 33.664062 314.320312 18.226562 C 326.882812 36.09375 334.738281 63.539062 339.378906 80.90625 C 340.804688 87.265625 341.804688 93.199219 342.589844 98.773438 C 344.089844 113.851562 343.304688 131.433594 340.664062 150.375 C 342.660156 152.445312 344.660156 155.949219 345.589844 157.664062 C 345.660156 157.808594 345.730469 157.878906 345.730469 158.019531 C 349.871094 166.097656 355.296875 181.535156 356.867188 208.335938 C 359.867188 259.367188 337.023438 280.878906 337.023438 280.878906 C 337.023438 280.878906 339.234375 290.171875 333.453125 295.746094 C 375 254.363281 369.929688 185.824219 347.730469 149.445312 Z M 347.730469 149.445312 " fill-opacity="1" fill-rule="nonzero"/><path fill="#ef5454" d="M 174.042969 246.929688 C 157.265625 246.929688 147.203125 240.140625 142.632812 230.777344 C 170.546875 199.332031 206.738281 209.550781 209.453125 210.265625 C 211.023438 227.917969 202.8125 246.929688 174.042969 246.929688 Z M 174.042969 246.929688 C 157.265625 246.929688 147.203125 240.140625 142.632812 230.777344 C 170.546875 199.332031 206.738281 209.550781 209.453125 210.265625 C 211.023438 227.917969 202.8125 246.929688 174.042969 246.929688 Z M 174.042969 246.929688 " fill-opacity="1" fill-rule="nonzero"/><path fill="#ffffff" d="M 92.304688 128.71875 C 90.519531 122.214844 110.007812 110.992188 114.648438 117.210938 C 122.714844 127.933594 94.589844 137.152344 92.304688 128.71875 Z M 139.136719 135.9375 C 137.421875 127.144531 125.714844 125.644531 116.503906 134.792969 C 107.296875 143.871094 93.660156 140.296875 89.09375 145.371094 C 84.378906 150.445312 92.445312 171.886719 111.578125 171.886719 C 127.640625 171.886719 143.847656 160.738281 139.136719 135.9375 Z M 235.292969 152.660156 C 233.507812 146.15625 253 134.9375 257.636719 141.15625 C 265.707031 151.804688 237.578125 161.023438 235.292969 152.660156 Z M 282.125 159.878906 C 280.410156 151.089844 268.703125 149.589844 259.496094 158.734375 C 250.285156 167.8125 236.652344 164.238281 232.082031 169.3125 C 227.371094 174.386719 235.4375 195.828125 254.570312 195.828125 C 270.558594 195.828125 286.835938 184.679688 282.125 159.878906 Z M 282.125 159.878906 " fill-opacity="1" fill-rule="nonzero"/></svg>